# xmcd
#
# Track frame offsets: 
#        150
#        19966
#        38224
#        56335
#        72672
#        92815
#        112114
#        131185
#        145509
#        165114
#        182543
#        202824
#
# Disc length: 2978 seconds
#
# Revision: 0
# Processed by: cddbd v1.5.2PL0 Copyright (c) Steve Scherf et al.
# Submitted via: ExactAudioCopyFreeDBPlugin 1.0
#
DISCID=a20ba00c
DTITLE=Beppe Maniglia - Soul Guitar
DYEAR=1900
DGENRE=Soul
TTITLE0=Mama Mama
TTITLE1=Goodnight
TTITLE2=Hey People
TTITLE3=Hope For Love
TTITLE4=Stay The Night
TTITLE5=Yes Or Not
TTITLE6=Soul Guitar
TTITLE7=Fortune
TTITLE8=Make It Happen
TTITLE9=I'll Be Happy
TTITLE10=You Make Me Feel
TTITLE11=Run And Fly
EXTD=
EXTT0=
EXTT1=
EXTT2=
EXTT3=
EXTT4=
EXTT5=
EXTT6=
EXTT7=
EXTT8=
EXTT9=
EXTT10=
EXTT11=
PLAYORDER=
